<svg xmlns="http://www.w3.org/2000/svg" width="34.875" height="31" viewBox="0 0 34.875 31">
  <path id="cart-plus-solid" d="M30.559,19.375H12.81l.4,1.938H29.458a1.453,1.453,0,0,1,1.417,1.775l-.334,1.47a3.392,3.392,0,1,1-3.851.63H14a3.39,3.39,0,1,1-4.059-.519L5.684,3.875H1.453A1.453,1.453,0,0,1,0,2.422V1.453A1.453,1.453,0,0,1,1.453,0H7.661A1.453,1.453,0,0,1,9.085,1.162L9.64,3.875H33.421A1.453,1.453,0,0,1,34.838,5.65L31.976,18.244A1.453,1.453,0,0,1,30.559,19.375Zm-5.856-9.2H21.8V7.75a.969.969,0,0,0-.969-.969h-.969a.969.969,0,0,0-.969.969v2.422H15.984a.969.969,0,0,0-.969.969v.969a.969.969,0,0,0,.969.969h2.906V15.5a.969.969,0,0,0,.969.969h.969A.969.969,0,0,0,21.8,15.5V13.078H24.7a.969.969,0,0,0,.969-.969v-.969A.969.969,0,0,0,24.7,10.172Z" fill="#0090ff"/>
</svg>
