<svg xmlns="http://www.w3.org/2000/svg" width="29" height="30" viewBox="0 0 29 30">
  <g id="Cart" transform="translate(-0.143 -11)">
    <path id="Cart-2" data-name="Cart" d="M22.359,30a2.132,2.132,0,0,1-1.631-.74,2.559,2.559,0,0,1-.672-1.775,2.493,2.493,0,0,1,.672-1.756,2.2,2.2,0,0,1,3.263,0,2.5,2.5,0,0,1,.672,1.756,2.564,2.564,0,0,1-.672,1.775A2.132,2.132,0,0,1,22.359,30ZM8.7,30a2.137,2.137,0,0,1-1.633-.74,2.565,2.565,0,0,1-.671-1.775,2.5,2.5,0,0,1,.671-1.756,2.2,2.2,0,0,1,3.264,0A2.5,2.5,0,0,1,11,27.485a2.565,2.565,0,0,1-.672,1.775A2.132,2.132,0,0,1,8.7,30ZM25.11,24.11H6.426a1.455,1.455,0,0,1-1.152-.586,1.773,1.773,0,0,1-.351-1.343l.8-4.686L4.506,4.335,1.05,3.164a1.454,1.454,0,0,1-.88-.792A1.844,1.844,0,0,1,.058,1.131,1.5,1.5,0,0,1,.811.185,1.523,1.523,0,0,1,1.524,0a1.487,1.487,0,0,1,.423.063L6.362,1.58a1.377,1.377,0,0,1,.688.517,1.874,1.874,0,0,1,.335.861l.257,2.618L27.669,7.987a1.42,1.42,0,0,1,1.024.655,1.655,1.655,0,0,1,.288,1.241l-1.216,7.51a1.5,1.5,0,0,1-1.472,1.343H8.57l-.352,2.136H25.11a1.428,1.428,0,0,1,1.056.464,1.712,1.712,0,0,1,0,2.309A1.425,1.425,0,0,1,25.11,24.11Z" transform="translate(0.143 11)" fill="#424242"/>
  </g>
</svg>
